<svg width="210" height="28" viewBox="0 0 210 28" fill="none" xmlns="http://www.w3.org/2000/svg">
<rect width="210" height="28" fill="white"/>
<path d="M44.1242 22.2608C45.447 22.2608 46.1053 21.1884 46.4421 20.4374L49.7058 12.1637L47.1097 11.2242L44.1242 19.504L41.1386 11.2242L38.5425 12.1637L41.8062 20.4374C42.1431 21.1915 42.8014 22.2608 44.1242 22.2608Z" fill="#1F263A"/>
<path d="M62.1888 22.2608C63.5116 22.2608 64.1699 21.1884 64.5067 20.4374L67.7674 12.1637L65.1712 11.2242L62.1857 19.504L59.2001 11.2242L56.604 12.1637L59.8677 20.4374C60.2046 21.1915 60.8629 22.2608 62.1857 22.2608H62.1888Z" fill="#1F263A"/>
<path d="M79.6109 21.9827H76.9314V20.7866C76.2267 21.6582 75.1728 22.264 73.6893 22.264C70.7007 22.264 68.4414 19.8162 68.4414 16.5617C68.4414 13.3073 70.7007 10.8564 73.6893 10.8564C75.1728 10.8564 76.2174 11.4591 76.9314 12.343V11.147H79.6109V21.9858V21.9827ZM71.121 16.5587C71.121 18.3049 72.2676 19.708 74.0694 19.708C75.8713 19.708 77.0179 18.3636 77.0179 16.5587C77.0179 14.7537 75.8311 13.4093 74.0694 13.4093C72.3078 13.4093 71.121 14.8125 71.121 16.5587Z" fill="#1F263A"/>
<path d="M54.4561 11.1562H51.8105V21.9981H54.4561V11.1562Z" fill="#1F263A"/>
<path d="M54.8299 7.49074C54.8299 8.44883 54.0758 9.18131 53.13 9.18131C52.1843 9.18131 51.4395 8.44883 51.4395 7.49074C51.4395 6.53264 52.1719 5.78162 53.13 5.78162C54.0881 5.78162 54.8299 6.53573 54.8299 7.49074Z" fill="#1F263A"/>
<path d="M22.3566 24.9898C20.734 24.9898 19.2505 24.0596 18.311 22.4741C17.3714 24.0565 15.8879 24.9898 14.2653 24.9898H14.2375C12.4666 24.9775 10.8749 23.8587 9.97246 21.995V21.9827L3 7.14763L11.8917 3L18.3017 16.5895L24.6437 3L33.5323 7.14454L26.6526 21.9981C25.7501 23.8618 24.1585 24.9806 22.3875 24.9929H22.3597M20.357 20.9442C20.8422 21.9116 21.5747 22.4648 22.3597 22.4648H22.369C23.1633 22.4586 23.8958 21.893 24.3717 20.904L30.1821 8.37152L25.8707 6.35952L19.708 19.5658L20.3601 20.9442H20.357ZM12.2564 20.904C12.7355 21.893 13.4649 22.4617 14.2561 22.4648H14.2684C15.0566 22.4648 15.7859 21.9116 16.2743 20.9473L16.914 19.5751L10.6771 6.35643L6.36879 8.36534L12.2533 20.8978L12.2564 20.904Z" fill="#1F263A"/>
<path d="M83.3569 20.4872C83.3569 19.5095 84.179 18.7098 85.201 18.7098C86.2231 18.7098 87.0005 19.5095 87.0005 20.4872C87.0005 21.465 86.1785 22.2867 85.201 22.2867C84.2236 22.2867 83.3569 21.487 83.3569 20.4872Z" fill="#1F263A"/>
<path d="M89.9219 16.688C89.9219 13.3331 92.2547 11.067 95.6096 11.067C97.298 11.067 99.0755 11.689 100.209 13.0221L98.2978 14.8216C97.7201 14.1105 96.8313 13.6662 95.8096 13.6662C94.0545 13.6662 92.877 14.8883 92.877 16.6654C92.877 18.4426 94.0768 19.6647 95.8096 19.6647C96.9203 19.6647 97.787 19.198 98.3644 18.4872L100.253 20.309C99.3198 21.4644 97.8311 22.2865 95.5206 22.2865C92.2767 22.2865 89.9219 20.0203 89.9219 16.6877V16.688Z" fill="#1F263A"/>
<path d="M100.966 16.6657C100.966 13.4221 103.277 11.067 106.743 11.067C110.209 11.067 112.497 13.3331 112.497 16.6657C112.497 19.9983 110.12 22.2868 106.743 22.2868C103.366 22.2868 100.966 19.9096 100.966 16.6657ZM109.542 16.6657C109.542 14.8883 108.342 13.6665 106.743 13.6665C105.054 13.6665 103.921 14.9552 103.921 16.6657C103.921 18.3762 105.077 19.6649 106.743 19.6649C108.298 19.6649 109.542 18.4429 109.542 16.6657Z" fill="#1F263A"/>
<path d="M113.818 11.2226H116.728V12.6444H116.751C117.617 11.6003 118.795 11.067 119.994 11.067C121.416 11.067 122.549 11.6003 123.194 12.7777H123.238C124.127 11.6447 125.482 11.067 127.037 11.067C129.37 11.067 130.858 12.4667 130.858 15.7993V22.0868H127.948V16.488C127.948 14.7552 127.415 13.6665 126.059 13.6665C124.837 13.6665 123.838 14.7106 123.838 16.6657V22.0868H120.927V16.488C120.927 14.7552 120.349 13.6665 119.016 13.6665C117.683 13.6665 116.728 14.7106 116.728 16.6657V22.0868H113.817V11.2223L113.818 11.2226Z" fill="#1F263A"/>
<line x1="139.488" y1="3" x2="139.488" y2="27" stroke="#1F263A"/>
<path d="M175.317 22.0474H173.602V20.4229C172.736 21.5362 171.416 22.2618 169.619 22.2618C166.559 22.2618 164.176 19.8704 164.176 16.5884C164.176 13.3229 166.559 10.9233 169.619 10.9233C171.416 10.9233 172.736 11.6572 173.602 12.7622V11.1377H175.317V22.0474ZM165.924 16.5884C165.924 18.8479 167.516 20.6538 169.825 20.6538C172.093 20.6538 173.701 18.9056 173.701 16.5884C173.701 14.2877 172.093 12.5395 169.825 12.5395C167.491 12.5395 165.924 14.3455 165.924 16.5884Z" fill="#1F263A"/>
<path d="M179.308 22.0474H177.585V5.47253H179.308V22.0474Z" fill="#1F263A"/>
<path d="M183.407 22.0474H181.684V5.47253H183.407V22.0474Z" fill="#1F263A"/>
<path d="M195.957 16.5554C195.957 16.7781 195.949 17.0007 195.924 17.1986H187.183C187.422 19.5488 189.072 20.7528 191.042 20.7528C192.387 20.7528 193.566 20.2333 194.498 19.3839L195.421 20.5549C194.061 21.8578 192.543 22.2618 190.943 22.2618C187.719 22.2618 185.427 19.9694 185.427 16.5967C185.427 13.257 187.727 10.9233 190.836 10.9233C193.788 10.9233 195.932 13.2405 195.957 16.5554ZM187.208 15.805H194.201C193.978 13.7682 192.65 12.4571 190.795 12.4571C188.783 12.4571 187.48 13.8424 187.208 15.805Z" fill="#1F263A"/>
<path d="M205.193 12.6962H200.485V18.1964C200.485 19.9034 201.383 20.6456 202.645 20.6456C203.486 20.6456 204.303 20.3322 204.938 19.8704L205.746 21.1733C204.929 21.7918 203.849 22.2536 202.513 22.2536C200.163 22.2536 198.769 20.9672 198.769 18.2212V12.688H196.386V11.1377H198.769V7.67426H200.485V11.1377H205.193V12.6962Z" fill="#1F263A"/>
<path d="M163.879 11.4098L162.313 10.8326L159.064 19.8539L155.806 11.1542C155.806 11.1459 155.798 11.1377 155.798 11.1377V11.1294C155.6 10.7171 155.213 10.5522 154.825 10.5439C154.446 10.5439 154.058 10.7089 153.868 11.1294L153.86 11.1459C153.86 11.1542 153.852 11.1542 153.852 11.1624L150.619 19.8539L147.395 10.8326L145.787 11.4263L149.556 21.6269V21.6351C149.754 22.0722 150.158 22.2453 150.562 22.2536C150.957 22.2536 151.362 22.0804 151.551 21.6351L154.8 12.9601L158.066 21.6351C158.264 22.0886 158.676 22.2618 159.088 22.2618C159.492 22.2618 159.896 22.0804 160.094 21.6351L163.879 11.4098Z" fill="#1F263A"/>
</svg>
